# This file uses centimeters as units for non-parametric coordinates.

mtllib Hazard.mtl
g default
v -0.500000 1.000000 -0.500000
v 0.500000 1.000000 -0.500000
v -0.500000 0.000000 -0.500000
v 0.500000 0.000000 -0.500000
v -0.500000 0.000000 0.500000
v 0.500000 0.000000 0.500000
v -0.500000 1.000000 0.500000
v 0.500000 1.000000 0.500000
v 0.434615 0.641215 0.500000
v 0.369706 0.768607 0.500000
v 0.268607 0.869706 0.500000
v 0.141215 0.934615 0.500000
v 0.000000 0.956982 0.500000
v -0.141215 0.934615 0.500000
v -0.268607 0.869706 0.500000
v -0.369706 0.768607 0.500000
v -0.434615 0.641215 0.500000
v -0.456981 0.500000 0.500000
v -0.434615 0.358785 0.500000
v -0.369706 0.231393 0.500000
v -0.268607 0.130294 0.500000
v -0.141215 0.065385 0.500000
v -0.000000 0.043019 0.500000
v 0.141215 0.065385 0.500000
v 0.268607 0.130294 0.500000
v 0.369706 0.231393 0.500000
v 0.434615 0.358785 0.500000
v 0.456981 0.500000 0.500000
v 0.000000 0.500000 1.413963
v 0.500000 0.641215 -0.434615
v 0.500000 0.768607 -0.369706
v 0.500000 0.869706 -0.268607
v 0.500000 0.934615 -0.141215
v 0.500000 0.956982 0.000000
v 0.500000 0.934615 0.141215
v 0.500000 0.869706 0.268607
v 0.500000 0.768607 0.369706
v 0.500000 0.641215 0.434615
v 0.500000 0.500000 0.456981
v 0.500000 0.358785 0.434615
v 0.500000 0.231393 0.369706
v 0.500000 0.130294 0.268607
v 0.500000 0.065385 0.141215
v 0.500000 0.043019 0.000000
v 0.500000 0.065385 -0.141215
v 0.500000 0.130294 -0.268607
v 0.500000 0.231393 -0.369706
v 0.500000 0.358785 -0.434615
v 0.500000 0.500000 -0.456981
v 1.413963 0.500000 0.000000
v -0.434615 0.641215 -0.500000
v -0.369706 0.768607 -0.500000
v -0.268607 0.869706 -0.500000
v -0.141215 0.934615 -0.500000
v -0.000000 0.956982 -0.500000
v 0.141215 0.934615 -0.500000
v 0.268607 0.869706 -0.500000
v 0.369706 0.768607 -0.500000
v 0.434615 0.641215 -0.500000
v 0.456981 0.500000 -0.500000
v 0.434615 0.358785 -0.500000
v 0.369706 0.231393 -0.500000
v 0.268607 0.130294 -0.500000
v 0.141215 0.065385 -0.500000
v 0.000000 0.043019 -0.500000
v -0.141215 0.065385 -0.500000
v -0.268607 0.130294 -0.500000
v -0.369706 0.231393 -0.500000
v -0.434615 0.358785 -0.500000
v -0.456981 0.500000 -0.500000
v 0.000000 0.500000 -1.413963
v -0.500000 0.641215 0.434957
v -0.500000 0.768607 0.370048
v -0.500000 0.869706 0.268949
v -0.500000 0.934615 0.141557
v -0.500000 0.956982 0.000342
v -0.500000 0.934615 -0.140873
v -0.500000 0.869706 -0.268265
v -0.500000 0.768607 -0.369364
v -0.500000 0.641215 -0.434274
v -0.500000 0.500000 -0.456640
v -0.500000 0.358785 -0.434274
v -0.500000 0.231393 -0.369364
v -0.500000 0.130294 -0.268265
v -0.500000 0.065385 -0.140873
v -0.500000 0.043019 0.000342
v -0.500000 0.065385 0.141557
v -0.500000 0.130294 0.268948
v -0.500000 0.231393 0.370047
v -0.500000 0.358785 0.434957
v -0.500000 0.500000 0.457323
v -1.413963 0.500000 0.000342
vt 0.809854 0.415122
vt 0.809854 0.610434
vt 0.614541 0.610434
vt 0.614541 0.415122
vt 0.223916 0.610434
vt 0.223916 0.415122
vt 0.419229 0.415122
vt 0.419229 0.610434
vt 0.419229 0.024497
vt 0.614541 0.024497
vt 0.614541 0.219809
vt 0.419229 0.219809
vt 0.614541 0.805747
vt 0.419229 0.805747
vt 0.046536 0.038994
vt 0.063209 0.038994
vt 0.213263 0.372447
vt 0.079882 0.038994
vt 0.096554 0.038994
vt 0.113227 0.038994
vt 0.129900 0.038994
vt 0.146572 0.038994
vt 0.163245 0.038994
vt 0.179918 0.038994
vt 0.196590 0.038994
vt 0.213263 0.038994
vt 0.229936 0.038994
vt 0.246608 0.038994
vt 0.263281 0.038994
vt 0.279953 0.038994
vt 0.296626 0.038994
vt 0.313299 0.038994
vt 0.329971 0.038994
vt 0.346644 0.038994
vt 0.363317 0.038994
vt 0.379989 0.038994
vt 0.642763 0.048769
vt 0.659436 0.048769
vt 0.809490 0.382222
vt 0.676109 0.048769
vt 0.692782 0.048769
vt 0.709454 0.048769
vt 0.726127 0.048769
vt 0.742799 0.048769
vt 0.759472 0.048769
vt 0.776145 0.048769
vt 0.792817 0.048769
vt 0.809490 0.048769
vt 0.826163 0.048769
vt 0.842835 0.048769
vt 0.859508 0.048769
vt 0.876181 0.048769
vt 0.892853 0.048769
vt 0.909526 0.048769
vt 0.926199 0.048769
vt 0.942871 0.048769
vt 0.959544 0.048769
vt 0.976216 0.048769
vt 0.643133 0.647898
vt 0.659806 0.647898
vt 0.809860 0.981351
vt 0.676478 0.647898
vt 0.693151 0.647898
vt 0.709824 0.647898
vt 0.726496 0.647898
vt 0.743169 0.647898
vt 0.759842 0.647898
vt 0.776514 0.647898
vt 0.793187 0.647898
vt 0.809860 0.647898
vt 0.826532 0.647898
vt 0.843205 0.647898
vt 0.859878 0.647898
vt 0.876550 0.647898
vt 0.893223 0.647898
vt 0.909895 0.647898
vt 0.926568 0.647898
vt 0.943241 0.647898
vt 0.959913 0.647898
vt 0.976586 0.647898
vt 0.057848 0.640669
vt 0.074521 0.640669
vt 0.224575 0.974122
vt 0.091193 0.640669
vt 0.107866 0.640669
vt 0.124539 0.640669
vt 0.141211 0.640669
vt 0.157884 0.640669
vt 0.174557 0.640669
vt 0.191229 0.640669
vt 0.207902 0.640669
vt 0.224575 0.640669
vt 0.241247 0.640669
vt 0.257920 0.640669
vt 0.274592 0.640669
vt 0.291265 0.640669
vt 0.307938 0.640669
vt 0.324610 0.640669
vt 0.341283 0.640669
vt 0.357956 0.640669
vt 0.374628 0.640669
vt 0.391301 0.640669
vn 0.000000 -0.000000 -1.000000
vn 0.000000 -0.000000 -1.000000
vn 0.000000 -0.000000 -1.000000
vn 0.000000 -0.000000 -1.000000
vn 0.000000 0.000000 1.000000
vn 0.000000 0.000000 1.000000
vn 0.000000 0.000000 1.000000
vn 0.000000 0.000000 1.000000
vn 0.000000 1.000000 0.000000
vn 0.000000 1.000000 0.000000
vn 0.000000 1.000000 0.000000
vn 0.000000 1.000000 0.000000
vn 0.000000 -1.000000 0.000000
vn 0.000000 -1.000000 0.000000
vn 0.000000 -1.000000 0.000000
vn 0.000000 -1.000000 0.000000
vn 1.000000 0.000000 0.000000
vn 1.000000 0.000000 0.000000
vn 1.000000 0.000000 0.000000
vn 1.000000 0.000000 0.000000
vn -1.000000 0.000000 0.000000
vn -1.000000 0.000000 0.000000
vn -1.000000 0.000000 0.000000
vn -1.000000 0.000000 0.000000
vn 0.850651 0.276392 0.447214
vn 0.723607 0.525731 0.447214
vn -0.000002 -0.000000 1.000000
vn 0.525731 0.723607 0.447214
vn 0.276393 0.850651 0.447214
vn -0.000000 0.894427 0.447214
vn -0.276393 0.850651 0.447214
vn -0.525731 0.723607 0.447214
vn -0.723607 0.525731 0.447214
vn -0.850651 0.276393 0.447214
vn -0.894427 0.000000 0.447214
vn -0.850651 -0.276393 0.447214
vn -0.723607 -0.525731 0.447214
vn -0.525731 -0.723607 0.447214
vn -0.276393 -0.850651 0.447214
vn -0.000000 -0.894427 0.447214
vn 0.276393 -0.850651 0.447214
vn 0.525731 -0.723607 0.447214
vn 0.723607 -0.525731 0.447214
vn 0.850651 -0.276393 0.447214
vn 0.894427 -0.000001 0.447214
vn 0.447214 0.276393 -0.850651
vn 0.447214 0.525731 -0.723607
vn 1.000000 0.000000 0.000002
vn 0.447214 0.723607 -0.525731
vn 0.447214 0.850651 -0.276393
vn 0.447214 0.894427 0.000000
vn 0.447214 0.850651 0.276393
vn 0.447214 0.723607 0.525731
vn 0.447214 0.525731 0.723607
vn 0.447214 0.276393 0.850651
vn 0.447214 0.000000 0.894427
vn 0.447214 -0.276393 0.850651
vn 0.447214 -0.525731 0.723607
vn 0.447214 -0.723607 0.525731
vn 0.447214 -0.850651 0.276393
vn 0.447214 -0.894427 0.000000
vn 0.447214 -0.850651 -0.276393
vn 0.447214 -0.723607 -0.525731
vn 0.447214 -0.525731 -0.723607
vn 0.447214 -0.276393 -0.850651
vn 0.447214 -0.000001 -0.894427
vn -0.850651 0.276392 -0.447214
vn -0.723607 0.525731 -0.447214
vn 0.000002 -0.000000 -1.000000
vn -0.525731 0.723607 -0.447214
vn -0.276393 0.850651 -0.447214
vn 0.000000 0.894427 -0.447214
vn 0.276393 0.850651 -0.447214
vn 0.525731 0.723607 -0.447214
vn 0.723607 0.525731 -0.447214
vn 0.850651 0.276393 -0.447214
vn 0.894427 0.000000 -0.447214
vn 0.850651 -0.276393 -0.447214
vn 0.723607 -0.525731 -0.447214
vn 0.525731 -0.723607 -0.447214
vn 0.276393 -0.850651 -0.447214
vn 0.000000 -0.894427 -0.447214
vn -0.276393 -0.850651 -0.447214
vn -0.525731 -0.723607 -0.447214
vn -0.723607 -0.525731 -0.447214
vn -0.850651 -0.276393 -0.447214
vn -0.894427 -0.000001 -0.447214
vn -0.447214 0.276393 0.850651
vn -0.447214 0.525731 0.723607
vn -1.000000 0.000000 -0.000002
vn -0.447214 0.723607 0.525731
vn -0.447214 0.850651 0.276393
vn -0.447214 0.894427 -0.000000
vn -0.447214 0.850651 -0.276393
vn -0.447214 0.723607 -0.525731
vn -0.447214 0.525731 -0.723607
vn -0.447214 0.276393 -0.850651
vn -0.447214 0.000000 -0.894427
vn -0.447214 -0.276393 -0.850651
vn -0.447214 -0.525731 -0.723607
vn -0.447214 -0.723607 -0.525731
vn -0.447214 -0.850651 -0.276393
vn -0.447214 -0.894427 -0.000000
vn -0.447214 -0.850651 0.276393
vn -0.447214 -0.723607 0.525731
vn -0.447214 -0.525731 0.723607
vn -0.447214 -0.276393 0.850651
vn -0.447214 -0.000001 0.894427
s off
g Hazard1_pCube1
usemtl initialShadingGroup
f 1/8/1 2/3/2 4/13/3 3/14/4
f 5/12/5 6/11/6 8/4/7 7/7/8
f 7/7/9 8/4/10 2/3/11 1/8/12
f 3/9/13 4/10/14 6/11/15 5/12/16
f 6/1/17 4/2/18 2/3/19 8/4/20
f 3/5/21 5/6/22 7/7/23 1/8/24
s 1
f 9/15/25 10/16/26 29/17/27
f 10/16/26 11/18/28 29/17/27
f 11/18/28 12/19/29 29/17/27
f 12/19/29 13/20/30 29/17/27
f 13/20/30 14/21/31 29/17/27
f 14/21/31 15/22/32 29/17/27
f 15/22/32 16/23/33 29/17/27
f 16/23/33 17/24/34 29/17/27
f 17/24/34 18/25/35 29/17/27
f 18/25/35 19/26/36 29/17/27
f 19/26/36 20/27/37 29/17/27
f 20/27/37 21/28/38 29/17/27
f 21/28/38 22/29/39 29/17/27
f 22/29/39 23/30/40 29/17/27
f 23/30/40 24/31/41 29/17/27
f 24/31/41 25/32/42 29/17/27
f 25/32/42 26/33/43 29/17/27
f 26/33/43 27/34/44 29/17/27
f 27/34/44 28/35/45 29/17/27
f 28/35/45 9/36/25 29/17/27
s 2
f 30/37/46 31/38/47 50/39/48
f 31/38/47 32/40/49 50/39/48
f 32/40/49 33/41/50 50/39/48
f 33/41/50 34/42/51 50/39/48
f 34/42/51 35/43/52 50/39/48
f 35/43/52 36/44/53 50/39/48
f 36/44/53 37/45/54 50/39/48
f 37/45/54 38/46/55 50/39/48
f 38/46/55 39/47/56 50/39/48
f 39/47/56 40/48/57 50/39/48
f 40/48/57 41/49/58 50/39/48
f 41/49/58 42/50/59 50/39/48
f 42/50/59 43/51/60 50/39/48
f 43/51/60 44/52/61 50/39/48
f 44/52/61 45/53/62 50/39/48
f 45/53/62 46/54/63 50/39/48
f 46/54/63 47/55/64 50/39/48
f 47/55/64 48/56/65 50/39/48
f 48/56/65 49/57/66 50/39/48
f 49/57/66 30/58/46 50/39/48
s 3
f 51/59/67 52/60/68 71/61/69
f 52/60/68 53/62/70 71/61/69
f 53/62/70 54/63/71 71/61/69
f 54/63/71 55/64/72 71/61/69
f 55/64/72 56/65/73 71/61/69
f 56/65/73 57/66/74 71/61/69
f 57/66/74 58/67/75 71/61/69
f 58/67/75 59/68/76 71/61/69
f 59/68/76 60/69/77 71/61/69
f 60/69/77 61/70/78 71/61/69
f 61/70/78 62/71/79 71/61/69
f 62/71/79 63/72/80 71/61/69
f 63/72/80 64/73/81 71/61/69
f 64/73/81 65/74/82 71/61/69
f 65/74/82 66/75/83 71/61/69
f 66/75/83 67/76/84 71/61/69
f 67/76/84 68/77/85 71/61/69
f 68/77/85 69/78/86 71/61/69
f 69/78/86 70/79/87 71/61/69
f 70/79/87 51/80/67 71/61/69
s 4
f 72/81/88 73/82/89 92/83/90
f 73/82/89 74/84/91 92/83/90
f 74/84/91 75/85/92 92/83/90
f 75/85/92 76/86/93 92/83/90
f 76/86/93 77/87/94 92/83/90
f 77/87/94 78/88/95 92/83/90
f 78/88/95 79/89/96 92/83/90
f 79/89/96 80/90/97 92/83/90
f 80/90/97 81/91/98 92/83/90
f 81/91/98 82/92/99 92/83/90
f 82/92/99 83/93/100 92/83/90
f 83/93/100 84/94/101 92/83/90
f 84/94/101 85/95/102 92/83/90
f 85/95/102 86/96/103 92/83/90
f 86/96/103 87/97/104 92/83/90
f 87/97/104 88/98/105 92/83/90
f 88/98/105 89/99/106 92/83/90
f 89/99/106 90/100/107 92/83/90
f 90/100/107 91/101/108 92/83/90
f 91/101/108 72/102/88 92/83/90
