# This file uses centimeters as units for non-parametric coordinates.

mtllib Wall_LP.mtl
g default
v -1.000000 0.000000 0.000000
v -0.500000 0.000000 0.000000
v 0.000000 0.000000 0.000000
v -1.000000 1.000000 0.000000
v -0.500000 1.000000 0.000000
v 0.000000 0.500000 0.000000
v -1.000000 1.000000 -3.000000
v -0.500000 1.000000 -3.000000
v 0.000000 0.500000 -3.000000
v -1.000000 0.000000 -3.000000
v -0.500000 0.000000 -3.000000
v 0.000000 0.000000 -3.000000
vt 0.489938 0.491929
vt 0.489938 0.005180
vt 0.571063 0.005180
vt 0.571063 0.491929
vt 0.652187 0.491929
vt 0.652187 0.005180
vt 0.823742 0.491929
vt 0.823742 0.005180
vt 0.985991 0.005180
vt 0.985991 0.491929
vt 0.403614 0.005180
vt 0.484739 0.005180
vt 0.484739 0.491929
vt 0.403614 0.491929
vt 0.656840 0.005180
vt 0.737964 0.005180
vt 0.737964 0.491929
vt 0.656840 0.491929
vt 0.819089 0.005180
vt 0.819089 0.491929
vt 0.217688 0.175200
vt 0.217688 0.097793
vt 0.372504 0.097793
vt 0.372504 0.175200
vt 0.217688 0.020385
vt 0.295096 0.020385
vt 0.378496 0.189050
vt 0.378496 0.266458
vt 0.223681 0.266458
vt 0.223681 0.189050
vt 0.301089 0.343866
vt 0.223681 0.343866
vn 0.000000 0.000000 1.000000
vn 0.000000 0.000000 1.000000
vn 0.000000 0.000000 1.000000
vn 0.000000 0.000000 1.000000
vn 0.000000 0.000000 1.000000
vn 0.000000 0.000000 1.000000
vn 0.000000 1.000000 0.000000
vn 0.447214 0.894427 0.000000
vn 0.447214 0.894427 0.000000
vn 0.000000 1.000000 0.000000
vn 0.707107 0.707107 0.000000
vn 0.707107 0.707107 0.000000
vn 0.000000 0.000000 -1.000000
vn 0.000000 0.000000 -1.000000
vn 0.000000 0.000000 -1.000000
vn 0.000000 0.000000 -1.000000
vn 0.000000 0.000000 -1.000000
vn 0.000000 0.000000 -1.000000
vn 0.000000 -1.000000 0.000000
vn 0.000000 -1.000000 0.000000
vn 0.000000 -1.000000 0.000000
vn 0.000000 -1.000000 0.000000
vn 0.000000 -1.000000 0.000000
vn 0.000000 -1.000000 0.000000
vn 1.000000 0.000000 0.000000
vn 1.000000 0.000000 0.000000
vn 1.000000 0.000000 0.000000
vn 1.000000 0.000000 0.000000
vn -1.000000 0.000000 0.000000
vn -1.000000 0.000000 0.000000
vn -1.000000 0.000000 0.000000
vn -1.000000 0.000000 0.000000
s 1
g Wall
usemtl initialShadingGroup
f 1/21/1 2/22/2 5/23/3 4/24/4
f 2/22/2 3/25/5 6/26/6 5/23/3
s 2
f 4/11/7 5/12/8 8/13/9 7/14/10
f 5/5/8 6/4/11 9/3/12 8/6/9
s 3
f 7/27/13 8/28/14 11/29/15 10/30/16
f 8/28/14 9/31/17 12/32/18 11/29/15
s 4
f 10/15/19 11/16/20 2/17/21 1/18/22
f 11/16/20 12/19/23 3/20/24 2/17/21
s off
f 3/1/25 12/2/26 9/3/27 6/4/28
f 10/7/29 1/8/30 4/9/31 7/10/32
