# This file uses centimeters as units for non-parametric coordinates.

mtllib afdgadhfad.mtl
g default
v 2.999959 0.000000 -1.999719
v 3.000003 0.000000 -2.499719
v 3.000003 0.000000 -2.999719
v 2.999945 1.000000 -1.999719
v 2.999986 1.000000 -2.499719
v 2.999997 0.500000 -2.999719
v 1.585756 1.000000 -1.414015
v 1.232190 1.000000 -1.767568
v 0.878617 0.500000 -2.121121
v 1.585760 0.000000 -1.414015
v 1.232194 0.000000 -1.767568
v 0.878619 0.000000 -2.121121
v 1.000000 1.000000 -0.000000
v 0.500000 1.000000 -0.000000
v 0.000000 0.500000 -0.000000
v 1.000000 0.000000 -0.000000
v 0.500000 0.000000 -0.000000
v 0.000000 0.000000 -0.000000
v 1.152225 1.000000 -0.765259
v 0.690280 1.000000 -0.956601
v 0.228340 0.500000 -1.147943
v 0.228340 0.000000 -1.147943
v 0.690280 0.000000 -0.956601
v 1.152225 0.000000 -0.765259
v 2.234624 1.000000 -1.847499
v 2.043299 1.000000 -2.309439
v 1.851948 0.500000 -2.771379
v 1.851953 0.000000 -2.771379
v 2.043311 0.000000 -2.309439
v 2.234635 0.000000 -1.847499
v 1.337031 1.000000 -1.110984
v 0.921286 1.000000 -1.388769
v 0.505544 0.500000 -1.666554
v 0.505545 0.000000 -1.666554
v 0.921286 0.000000 -1.388769
v 1.337032 0.000000 -1.110984
v 1.038425 0.000000 -0.390126
v 0.548031 0.000000 -0.487671
v 0.057639 0.000000 -0.585216
v 0.057639 0.500000 -0.585216
v 0.548031 1.000000 -0.487671
v 1.038425 1.000000 -0.390126
v 1.888848 0.000000 -1.662705
v 1.611061 0.000000 -2.078440
v 1.333251 0.000000 -2.494175
v 1.333248 0.500000 -2.494175
v 1.611053 1.000000 -2.078440
v 1.888840 1.000000 -1.662705
v 2.609803 1.000000 -1.961295
v 2.512291 1.000000 -2.451687
v 2.414751 0.500000 -2.942080
v 2.414757 0.000000 -2.942080
v 2.512307 0.000000 -2.451687
v 2.609816 0.000000 -1.961295
v 1.009629 0.000000 -0.196007
v 0.512037 0.000000 -0.245015
v 0.014444 0.000000 -0.294024
v 0.014444 0.500000 -0.294024
v 0.512037 1.000000 -0.245015
v 1.009629 1.000000 -0.196007
v 1.086109 1.000000 -0.580488
v 0.607637 1.000000 -0.725630
v 0.129167 0.500000 -0.870772
v 0.129167 0.000000 -0.870772
v 0.607637 0.000000 -0.725630
v 1.086109 0.000000 -0.580488
v 0.354203 0.000000 -1.414058
v 0.354203 0.500000 -1.414058
v 0.795166 1.000000 -1.178359
v 1.236134 1.000000 -0.942661
v 1.236134 0.000000 -0.942661
v 0.795166 0.000000 -1.178359
v 1.453947 1.000000 -1.268608
v 1.067429 1.000000 -1.585805
v 0.680909 0.500000 -1.903001
v 0.680910 0.000000 -1.903001
v 1.067430 0.000000 -1.585805
v 1.453950 0.000000 -1.268608
v 1.731194 0.000000 -1.545804
v 1.413988 0.000000 -1.932309
v 1.096767 0.000000 -2.318814
v 1.096764 0.500000 -2.318814
v 1.413982 1.000000 -1.932309
v 1.731188 1.000000 -1.545804
v 2.057194 1.000000 -1.763594
v 1.821502 1.000000 -2.204555
v 1.585788 0.500000 -2.645516
v 1.585792 0.000000 -2.645516
v 1.821512 0.000000 -2.204555
v 2.057203 0.000000 -1.763594
v 2.129166 0.000000 -2.870552
v 2.129160 0.500000 -2.870552
v 2.274305 1.000000 -2.392081
v 2.419421 1.000000 -1.913611
v 2.419433 0.000000 -1.913611
v 2.274318 0.000000 -2.392081
v 2.803934 1.000000 -1.990089
v 2.754965 1.000000 -2.487682
v 2.705965 0.500000 -2.985274
v 2.705972 0.000000 -2.985274
v 2.754981 0.000000 -2.487682
v 2.803948 0.000000 -1.990089
vt 0.489938 0.491929
vt 0.489938 0.005180
vt 0.571063 0.005180
vt 0.571063 0.491929
vt 0.652187 0.491929
vt 0.652187 0.005180
vt 0.823742 0.491929
vt 0.823742 0.005180
vt 0.985991 0.005180
vt 0.985991 0.491929
vt 0.403614 0.005180
vt 0.484739 0.005180
vt 0.484739 0.491929
vt 0.403614 0.491929
vt 0.656840 0.005180
vt 0.737964 0.005180
vt 0.737964 0.491929
vt 0.656840 0.491929
vt 0.819089 0.005180
vt 0.819089 0.491929
vt 0.217688 0.175200
vt 0.217688 0.097793
vt 0.372504 0.097793
vt 0.372504 0.175200
vt 0.217688 0.020385
vt 0.295096 0.020385
vt 0.403614 0.503251
vt 0.484739 0.503251
vt 0.484739 0.989999
vt 0.403614 0.989999
vt 0.652187 0.989999
vt 0.571063 0.989999
vt 0.571063 0.503251
vt 0.652187 0.503251
vt 0.378496 0.687121
vt 0.378496 0.764529
vt 0.223681 0.764529
vt 0.223681 0.687121
vt 0.301089 0.841936
vt 0.223681 0.841936
vt 0.656840 0.503251
vt 0.737964 0.503251
vt 0.737964 0.989999
vt 0.656840 0.989999
vt 0.819089 0.503251
vt 0.819089 0.989999
vt 0.489938 0.989999
vt 0.489938 0.503251
vt 0.823742 0.989999
vt 0.823742 0.503251
vt 0.985991 0.503251
vt 0.985991 0.989999
vt 0.985991 0.746625
vt 0.403614 0.746625
vt 0.484739 0.746625
vt 0.652187 0.746625
vt 0.571063 0.746625
vt 0.819089 0.746625
vt 0.489938 0.746625
vt 0.737964 0.746625
vt 0.823742 0.746625
vt 0.656840 0.746625
vt 0.985991 0.248555
vt 0.403614 0.248555
vt 0.484739 0.248555
vt 0.652187 0.248555
vt 0.571063 0.248555
vt 0.819089 0.248555
vt 0.489938 0.248555
vt 0.737964 0.248555
vt 0.823742 0.248555
vt 0.656840 0.248555
vt 0.985991 0.624938
vt 0.403614 0.624938
vt 0.484739 0.624938
vt 0.652187 0.868312
vt 0.571063 0.868312
vt 0.819089 0.868312
vt 0.489938 0.868312
vt 0.737964 0.868312
vt 0.823742 0.624938
vt 0.656840 0.868312
vt 0.823742 0.868312
vt 0.656840 0.624938
vt 0.737964 0.624938
vt 0.819089 0.624938
vt 0.489938 0.624938
vt 0.571063 0.624938
vt 0.484739 0.868312
vt 0.652187 0.624938
vt 0.985991 0.868312
vt 0.403614 0.868312
vt 0.823742 0.370242
vt 0.656840 0.126868
vt 0.737964 0.126868
vt 0.819089 0.126868
vt 0.489938 0.126868
vt 0.571063 0.126868
vt 0.484739 0.370242
vt 0.652187 0.126868
vt 0.985991 0.370242
vt 0.403614 0.370242
vt 0.985991 0.126868
vt 0.403614 0.126868
vt 0.484739 0.126868
vt 0.652187 0.370242
vt 0.571063 0.370242
vt 0.819089 0.370242
vt 0.489938 0.370242
vt 0.737964 0.370242
vt 0.823742 0.126868
vt 0.656840 0.370242
vt 0.823742 0.929156
vt 0.656840 0.564094
vt 0.737964 0.564094
vt 0.819089 0.564094
vt 0.489938 0.564094
vt 0.571063 0.564094
vt 0.484739 0.929156
vt 0.652187 0.564094
vt 0.985991 0.929156
vt 0.403614 0.929156
vt 0.985991 0.807469
vt 0.403614 0.807469
vt 0.484739 0.807469
vt 0.652187 0.685782
vt 0.571063 0.685782
vt 0.819089 0.685782
vt 0.489938 0.685782
vt 0.737964 0.685782
vt 0.823742 0.807469
vt 0.656840 0.685782
vt 0.819089 0.807469
vt 0.489938 0.807469
vt 0.571063 0.807469
vt 0.484739 0.685782
vt 0.652187 0.807469
vt 0.985991 0.685782
vt 0.403614 0.685782
vt 0.823742 0.685782
vt 0.656840 0.807469
vt 0.737964 0.807469
vt 0.985991 0.564094
vt 0.403614 0.564094
vt 0.484739 0.564094
vt 0.652187 0.929156
vt 0.571063 0.929156
vt 0.819089 0.929156
vt 0.489938 0.929156
vt 0.737964 0.929156
vt 0.823742 0.564094
vt 0.656840 0.929156
vt 0.823742 0.431085
vt 0.656840 0.066024
vt 0.737964 0.066024
vt 0.819089 0.066024
vt 0.489938 0.066024
vt 0.571063 0.066024
vt 0.484739 0.431085
vt 0.652187 0.066024
vt 0.985991 0.431085
vt 0.403614 0.431085
vt 0.985991 0.309398
vt 0.403614 0.309398
vt 0.484739 0.309398
vt 0.652187 0.187711
vt 0.571063 0.187711
vt 0.819089 0.187711
vt 0.489938 0.187711
vt 0.737964 0.187711
vt 0.823742 0.309398
vt 0.656840 0.187711
vt 0.819089 0.309398
vt 0.489938 0.309398
vt 0.571063 0.309398
vt 0.484739 0.187711
vt 0.652187 0.309398
vt 0.985991 0.187711
vt 0.403614 0.187711
vt 0.823742 0.187711
vt 0.656840 0.309398
vt 0.737964 0.309398
vt 0.985991 0.066024
vt 0.403614 0.066024
vt 0.484739 0.066024
vt 0.652187 0.431085
vt 0.571063 0.431085
vt 0.819089 0.431085
vt 0.489938 0.431085
vt 0.737964 0.431085
vt 0.823742 0.066024
vt 0.656840 0.431085
vn 1.000000 0.000015 0.000085
vn 1.000000 0.000015 0.000050
vn 1.000000 0.000015 0.000063
vn 1.000000 0.000015 0.000085
vn 1.000000 0.000016 0.000003
vn 1.000000 0.000016 0.000003
vn -0.000000 1.000000 0.000000
vn -0.231302 0.871304 -0.432814
vn -0.272607 0.871306 -0.408058
vn -0.000000 1.000000 0.000000
vn -0.333282 0.707112 -0.623631
vn -0.392798 0.707114 -0.587962
vn 0.000000 -1.000000 0.000000
vn 0.000000 -1.000000 0.000000
vn 0.000000 -1.000000 0.000000
vn 0.000000 -1.000000 0.000000
vn 0.000000 -1.000000 0.000000
vn 0.000000 -1.000000 0.000000
vn -0.471334 -0.000004 -0.881955
vn -0.471334 -0.000004 -0.881955
vn -0.555507 -0.000004 -0.831512
vn -0.555507 -0.000004 -0.831512
vn 0.555499 0.000004 0.831517
vn 0.555499 0.000004 0.831517
vn 0.471332 0.000004 0.881956
vn 0.471333 0.000004 0.881956
vn -0.000000 1.000000 0.000000
vn -0.469614 0.871303 -0.142456
vn -0.481316 0.871303 -0.095740
vn -0.000000 1.000000 0.000000
vn -0.676659 0.707107 -0.205262
vn -0.693520 0.707107 -0.137950
vn 0.000000 0.000000 1.000000
vn 0.000000 0.000000 1.000000
vn 0.000000 0.000000 1.000000
vn 0.000000 0.000000 1.000000
vn 0.000000 0.000000 1.000000
vn 0.000000 0.000000 1.000000
vn 0.000000 -1.000000 0.000000
vn -0.000000 -1.000000 -0.000000
vn -0.000000 -1.000000 -0.000000
vn 0.000000 -1.000000 0.000000
vn -0.000000 -1.000000 -0.000000
vn -0.000000 -1.000000 -0.000000
vn -0.956940 0.000000 -0.290285
vn -0.956940 0.000000 -0.290285
vn -0.980785 0.000000 -0.195090
vn -0.980785 0.000000 -0.195090
vn 0.980784 0.000000 0.195096
vn 0.980784 0.000000 0.195096
vn 0.956937 0.000000 0.290295
vn 0.956937 0.000000 0.290295
vn -0.000000 1.000000 0.000000
vn -0.408031 0.871306 -0.272647
vn -0.432795 0.871305 -0.231337
vn -0.000000 1.000000 0.000000
vn -0.587928 0.707112 -0.392854
vn -0.623609 0.707109 -0.333331
vn -0.831466 -0.000001 -0.555576
vn -0.831466 -0.000001 -0.555576
vn -0.881921 -0.000000 -0.471397
vn -0.881921 -0.000000 -0.471397
vn 0.000000 -1.000000 0.000000
vn 0.000000 -1.000000 0.000000
vn 0.000000 -1.000000 0.000000
vn 0.000000 -1.000000 0.000000
vn 0.000000 -1.000000 0.000000
vn 0.000000 -1.000000 0.000000
vn 0.881907 0.000000 0.471423
vn 0.881907 0.000000 0.471423
vn 0.831442 0.000001 0.555611
vn 0.831442 0.000001 0.555611
vn -0.000000 1.000000 0.000000
vn -0.095731 0.871301 -0.481321
vn -0.142439 0.871302 -0.469622
vn -0.000000 1.000000 0.000000
vn -0.137937 0.707106 -0.693523
vn -0.205238 0.707107 -0.676666
vn -0.195072 -0.000002 -0.980789
vn -0.195071 -0.000002 -0.980789
vn -0.290248 -0.000003 -0.956952
vn -0.290249 -0.000003 -0.956951
vn 0.000000 -1.000000 0.000000
vn 0.000000 -1.000000 0.000000
vn 0.000000 -1.000000 0.000000
vn 0.000000 -1.000000 0.000000
vn 0.000000 -1.000000 0.000000
vn 0.000000 -1.000000 0.000000
vn 0.290253 0.000003 0.956950
vn 0.290252 0.000003 0.956950
vn 0.195074 0.000002 0.980789
vn 0.195074 0.000002 0.980789
vn -0.000000 1.000000 0.000000
vn -0.379334 0.871307 -0.311336
vn -0.546579 0.707115 -0.448598
vn -0.772994 -0.000002 -0.634414
vn -0.772994 -0.000002 -0.634414
vn 0.000000 -1.000000 0.000000
vn 0.000000 -1.000000 0.000000
vn 0.000000 -1.000000 0.000000
vn 0.772965 0.000002 0.634448
vn 0.772965 0.000002 0.634448
vn 0.000000 -1.000000 0.000000
vn 0.000000 -1.000000 0.000000
vn 0.000000 -1.000000 0.000000
vn -0.995185 0.000000 -0.098017
vn -0.995185 0.000000 -0.098017
vn -0.703702 0.707107 -0.069309
vn -0.488384 0.871302 -0.048102
vn -0.000000 1.000000 0.000000
vn 0.995185 0.000000 0.098019
vn 0.995185 0.000000 0.098019
vn 0.000000 -1.000000 0.000000
vn 0.000000 -1.000000 0.000000
vn 0.000000 -1.000000 0.000000
vn -0.634339 -0.000003 -0.773055
vn -0.634339 -0.000003 -0.773055
vn -0.448538 0.707116 -0.546627
vn -0.311291 0.871307 -0.379370
vn -0.000000 1.000000 0.000000
vn 0.634324 0.000004 0.773068
vn 0.634323 0.000004 0.773068
vn -0.000000 1.000000 0.000000
vn -0.048099 0.871302 -0.488385
vn -0.069305 0.707106 -0.703703
vn -0.098013 -0.000001 -0.995185
vn -0.098012 -0.000001 -0.995185
vn 0.000000 -1.000000 0.000000
vn 0.000000 -1.000000 0.000000
vn 0.000000 -1.000000 0.000000
vn 0.098012 0.000001 0.995185
vn 0.098013 0.000001 0.995185
vn 0.000000 -1.000000 0.000000
vn 0.000000 -1.000000 0.000000
vn 0.000000 -1.000000 0.000000
vn -0.998796 0.000000 -0.049068
vn -0.998796 0.000000 -0.049068
vn -0.706681 0.706680 -0.034717
vn -0.490604 0.871049 -0.024102
vn -0.000000 1.000000 0.000000
vn 0.998795 0.000000 0.049068
vn 0.998795 0.000000 0.049068
vn -0.000000 1.000000 0.000000
vn -0.453389 0.871303 -0.187801
vn -0.653280 0.707107 -0.270599
vn -0.923880 0.000000 -0.382683
vn -0.923880 0.000000 -0.382683
vn 0.000000 -1.000000 0.000000
vn 0.000000 -1.000000 0.000000
vn 0.000000 -1.000000 0.000000
vn 0.923873 0.000000 0.382700
vn 0.923873 0.000000 0.382700
vn -0.000000 1.000000 0.000000
vn -0.363916 0.871064 -0.329867
vn -0.524217 0.706690 -0.475170
vn -0.740925 -0.000002 -0.671588
vn -0.740925 -0.000002 -0.671588
vn 0.000000 -1.000000 0.000000
vn 0.000000 -1.000000 0.000000
vn 0.000000 -1.000000 0.000000
vn 0.740898 0.000003 0.671617
vn 0.740898 0.000003 0.671617
vn 0.000000 -1.000000 0.000000
vn 0.000000 -1.000000 0.000000
vn 0.000000 -1.000000 0.000000
vn -0.671512 -0.000003 -0.740993
vn -0.671512 -0.000003 -0.740993
vn -0.475107 0.706690 -0.524273
vn -0.329847 0.871045 -0.363981
vn -0.000000 1.000000 0.000000
vn 0.671492 0.000003 0.741012
vn 0.671492 0.000003 0.741012
vn -0.000000 1.000000 0.000000
vn -0.187774 0.871303 -0.453401
vn -0.270561 0.707109 -0.653294
vn -0.382631 -0.000004 -0.923901
vn -0.382631 -0.000004 -0.923902
vn 0.000000 -1.000000 0.000000
vn 0.000000 -1.000000 0.000000
vn 0.000000 -1.000000 0.000000
vn 0.382634 0.000004 0.923900
vn 0.382634 0.000004 0.923900
vn -0.000000 1.000000 0.000000
vn -0.024102 0.871043 -0.490615
vn -0.034717 0.706680 -0.706681
vn -0.049067 -0.000001 -0.998796
vn -0.049067 -0.000001 -0.998796
vn 0.000000 -1.000000 0.000000
vn 0.000000 -1.000000 0.000000
vn 0.000000 -1.000000 0.000000
vn 0.049067 0.000001 0.998796
vn 0.049067 0.000001 0.998796
s 1
g InsideBend
usemtl initialShadingGroup
f 1/21/1 2/22/2 5/23/3 4/24/4
f 2/22/2 3/25/5 6/26/6 5/23/3
s 2
f 85/164/7 86/165/8 47/99/9 48/102/10
f 86/166/8 87/167/11 46/98/12 47/100/9
s 3
f 43/94/13 44/95/14 89/170/15 90/172/16
f 44/95/14 45/96/17 88/168/18 89/170/15
s 4
f 87/167/19 88/169/20 45/97/21 46/98/22
s 5
f 48/101/23 43/93/24 90/171/25 85/163/26
s 6
f 61/124/27 62/125/28 41/89/29 42/92/30
f 62/126/28 63/127/31 40/88/32 41/90/29
s 7
f 13/35/33 14/36/34 17/37/35 16/38/36
f 14/36/34 15/39/37 18/40/38 17/37/35
s 8
f 37/84/39 38/85/40 65/130/41 66/132/42
f 38/85/40 39/86/43 64/128/44 65/130/41
s 9
f 63/127/45 64/129/46 39/87/47 40/88/48
s 10
f 42/91/49 37/83/50 66/131/51 61/123/52
s 6
f 31/74/53 32/75/54 69/136/55 70/139/56
f 32/76/54 33/77/57 68/135/58 69/137/55
s 9
f 33/77/59 34/79/60 67/134/61 68/135/62
s 8
f 72/142/63 67/133/64 34/78/65 35/80/66
f 71/141/67 72/142/63 35/80/66 36/82/68
s 10
f 70/138/69 71/140/70 36/81/71 31/73/72
s 2
f 49/104/73 50/105/74 93/176/75 94/179/76
f 50/106/74 51/107/77 92/175/78 93/177/75
s 4
f 51/107/79 52/109/80 91/174/81 92/175/82
s 3
f 96/182/83 91/173/84 52/108/85 53/110/86
f 95/181/87 96/182/83 53/110/86 54/112/88
s 5
f 94/178/89 95/180/90 54/111/91 49/103/92
s 6
f 73/144/93 74/145/94 32/75/54 31/74/53
f 74/146/94 75/147/95 33/77/57 32/76/54
s 9
f 75/147/96 76/149/97 34/79/60 33/77/59
s 8
f 35/80/66 34/78/65 76/148/98 77/150/99
f 36/82/68 35/80/66 77/150/99 78/152/100
s 10
f 31/73/72 36/81/71 78/151/101 73/143/102
s 8
f 55/114/103 56/115/104 38/85/40 37/84/39
f 56/115/104 57/116/105 39/86/43 38/85/40
s 9
f 40/88/48 39/87/47 57/117/106 58/118/107
s 6
f 41/90/29 40/88/32 58/118/108 59/120/109
f 42/92/30 41/89/29 59/119/109 60/122/110
s 10
f 60/121/111 55/113/112 37/83/50 42/91/49
s 3
f 79/154/113 80/155/114 44/95/14 43/94/13
f 80/155/114 81/156/115 45/96/17 44/95/14
s 4
f 46/98/22 45/97/21 81/157/116 82/158/117
s 2
f 47/100/9 46/98/12 82/158/118 83/160/119
f 48/102/10 47/99/9 83/159/119 84/162/120
s 5
f 84/161/121 79/153/122 43/93/24 48/101/23
s 2
f 97/184/123 98/185/124 50/105/74 49/104/73
f 98/186/124 99/187/125 51/107/77 50/106/74
s 4
f 99/187/126 100/189/127 52/109/80 51/107/79
s 3
f 53/110/86 52/108/85 100/188/128 101/190/129
f 54/112/88 53/110/86 101/190/129 102/192/130
s 5
f 49/103/92 54/111/91 102/191/131 97/183/132
s 8
f 16/41/133 17/42/134 56/115/104 55/114/103
f 17/42/134 18/45/135 57/116/105 56/115/104
s 9
f 58/118/107 57/117/106 18/48/136 15/33/137
s 6
f 59/120/109 58/118/108 15/33/138 14/34/139
f 60/122/110 59/119/109 14/29/139 13/30/140
s 10
f 16/49/141 55/113/112 60/121/111 13/52/142
s 6
f 19/54/143 20/55/144 62/125/28 61/124/27
f 20/56/144 21/57/145 63/127/31 62/126/28
s 9
f 21/57/146 22/59/147 64/129/46 63/127/45
s 8
f 65/130/41 64/128/44 22/58/148 23/60/149
f 66/132/42 65/130/41 23/60/149 24/62/150
s 10
f 61/123/52 66/131/51 24/61/151 19/53/152
s 9
f 68/135/62 67/134/61 22/59/147 21/57/146
s 6
f 69/137/55 68/135/58 21/57/145 20/56/144
f 70/139/56 69/136/55 20/55/144 19/54/143
s 10
f 19/53/152 24/61/151 71/140/70 70/138/69
s 8
f 24/62/150 23/60/149 72/142/63 71/141/67
f 23/60/149 22/58/148 67/133/64 72/142/63
s 6
f 7/27/153 8/28/154 74/145/94 73/144/93
f 8/31/154 9/32/155 75/147/95 74/146/94
s 9
f 12/47/156 76/149/97 75/147/96 9/32/157
s 8
f 77/150/99 76/148/98 12/46/158 11/43/159
f 78/152/100 77/150/99 11/43/159 10/44/160
s 10
f 73/143/102 78/151/101 10/50/161 7/51/162
s 3
f 10/15/163 11/16/164 80/155/114 79/154/113
f 11/16/164 12/19/165 81/156/115 80/155/114
s 4
f 82/158/117 81/157/116 12/2/166 9/3/167
s 2
f 83/160/119 82/158/118 9/3/168 8/6/169
f 84/162/120 83/159/119 8/13/169 7/14/170
s 5
f 10/7/171 79/153/122 84/161/121 7/10/172
s 2
f 25/64/173 26/65/174 86/165/8 85/164/7
f 26/66/174 27/67/175 87/167/11 86/166/8
s 4
f 27/67/176 28/69/177 88/169/20 87/167/19
s 3
f 89/170/15 88/168/18 28/68/178 29/70/179
f 90/172/16 89/170/15 29/70/179 30/72/180
s 5
f 85/163/26 90/171/25 30/71/181 25/63/182
s 4
f 92/175/82 91/174/81 28/69/177 27/67/176
s 2
f 93/177/75 92/175/78 27/67/175 26/66/174
f 94/179/76 93/176/75 26/65/174 25/64/173
s 5
f 25/63/182 30/71/181 95/180/90 94/178/89
s 3
f 30/72/180 29/70/179 96/182/83 95/181/87
f 29/70/179 28/68/178 91/173/84 96/182/83
s 2
f 4/11/183 5/12/184 98/185/124 97/184/123
f 5/5/184 6/4/185 99/187/125 98/186/124
s 4
f 3/1/186 100/189/127 99/187/126 6/4/187
s 3
f 101/190/129 100/188/128 3/20/188 2/17/189
f 102/192/130 101/190/129 2/17/189 1/18/190
s 5
f 97/183/132 102/191/131 1/8/191 4/9/192
