# This file uses centimeters as units for non-parametric coordinates.

mtllib OutsideConrer_LP.mtl
g default
v -1.000003 0.000000 -4.000001
v -0.500000 0.000000 -3.500000
v 0.000000 0.000000 -3.000000
v -1.000003 1.000000 -4.000001
v -0.500000 1.000000 -3.500000
v 0.000000 0.500000 -3.000000
v 2.999990 1.000000 -4.000000
v 3.000000 1.000000 -3.500000
v 3.000000 0.500000 -3.000000
v 2.999995 0.000000 -4.000000
v 3.000000 0.000000 -3.500000
v 3.000000 0.000000 -3.000000
v -1.000000 0.000000 -0.000000
v -0.500000 0.000000 0.000000
v 0.000000 0.000000 0.000000
v -1.000000 1.000000 -0.000000
v -0.500000 1.000000 0.000000
v 0.000000 0.500000 0.000000
vt 0.906497 0.801030
vt 0.829562 0.801030
vt 0.829562 0.647160
vt 0.906497 0.647160
vt 0.752627 0.724095
vt 0.752627 0.647160
vt 0.267135 0.253099
vt 0.267135 0.714709
vt 0.190200 0.714709
vt 0.190200 0.253099
vt 0.113265 0.253099
vt 0.113265 0.791644
vt 0.661633 0.639615
vt 0.661633 0.024135
vt 0.815504 0.024135
vt 0.815504 0.639615
vt 0.027067 0.892413
vt 0.104002 0.815478
vt 0.682892 0.815478
vt 0.682890 0.892413
vt 0.027067 0.276933
vt 0.104002 0.276933
vt 0.221282 0.738543
vt 0.682892 0.738543
vt 0.634801 0.651748
vt 0.557866 0.651749
vt 0.557866 0.113204
vt 0.634801 0.036268
vt 0.480931 0.651749
vt 0.480931 0.190139
vt 0.019321 0.113204
vt 0.019321 0.036269
vt 0.019321 0.190139
vt 0.535752 0.921400
vt 0.997363 0.921400
vt 0.997363 0.998335
vt 0.535753 0.998335
vt 0.977804 0.024135
vt 0.977804 0.639615
vt 0.823934 0.639615
vt 0.823934 0.024136
vt 0.310976 0.590282
vt 0.310976 0.513347
vt 0.464846 0.513347
vt 0.464846 0.590282
vt 0.310976 0.436412
vt 0.387911 0.436412
vn 0.000000 1.000000 0.000000
vn 0.000000 0.967818 0.251652
vn 0.000000 0.907008 0.421114
vn 0.000000 1.000000 0.000000
vn 0.000000 0.707107 0.707107
vn 0.000000 0.707107 0.707107
vn 1.000000 0.000003 -0.000015
vn 1.000000 0.000002 -0.000011
vn 1.000000 0.000002 -0.000009
vn 1.000000 0.000003 -0.000015
vn 1.000000 0.000000 0.000000
vn 1.000000 0.000000 0.000000
vn 0.000000 -1.000000 0.000000
vn 0.000000 -1.000000 0.000000
vn 0.000000 -1.000000 0.000000
vn 0.000000 -1.000000 0.000000
vn 0.000000 -1.000000 0.000000
vn 0.000000 -1.000000 0.000000
vn 0.000000 0.000000 1.000000
vn 0.000000 0.000000 1.000000
vn 0.000000 0.000000 1.000000
vn 0.000000 0.000000 1.000000
vn 0.000000 0.000000 -1.000000
vn 0.000000 0.000000 -1.000000
vn 0.000000 0.000000 -1.000000
vn 0.000000 0.000000 -1.000000
vn -0.000000 0.000000 1.000000
vn -0.000000 0.000000 1.000000
vn -0.000000 0.000000 1.000000
vn -0.000000 0.000000 1.000000
vn 0.000000 0.000000 1.000000
vn 0.000000 0.000000 1.000000
vn 0.000000 1.000000 0.000000
vn 0.421111 0.907009 0.000000
vn 0.251652 0.967818 0.000000
vn 0.000000 1.000000 0.000000
vn 0.707107 0.707107 0.000000
vn 0.707107 0.707107 0.000000
vn 0.000000 -1.000000 0.000000
vn 0.000000 -1.000000 0.000000
vn 0.000000 -1.000000 0.000000
vn 0.000000 -1.000000 0.000000
vn 0.000000 -1.000000 0.000000
vn 0.000000 -1.000000 0.000000
vn 1.000000 0.000000 0.000000
vn 1.000000 0.000000 0.000000
vn 1.000000 0.000000 0.000000
vn 1.000000 0.000000 0.000000
vn -1.000000 -0.000000 0.000001
vn -1.000000 -0.000000 0.000001
vn -1.000000 -0.000000 0.000001
vn -1.000000 -0.000000 0.000001
s 1
g OutsideCorner
usemtl initialShadingGroup
f 4/17/1 5/18/2 8/19/3 7/20/4
f 5/18/2 6/23/5 9/24/6 8/19/3
s 2
f 7/1/7 8/2/8 11/3/9 10/4/10
f 8/2/8 9/5/11 12/6/12 11/3/9
s 3
f 10/25/13 11/26/14 2/27/15 1/28/16
f 11/26/14 12/29/17 3/30/18 2/27/15
s off
f 3/34/19 12/35/20 9/36/21 6/37/22
f 10/38/23 1/39/24 4/40/25 7/41/26
s 4
f 13/42/27 14/43/28 17/44/29 16/45/30
f 14/43/28 15/46/31 18/47/32 17/44/29
s 5
f 16/21/33 17/22/34 5/18/35 4/17/36
f 17/11/34 18/10/37 6/9/38 5/12/35
s 6
f 1/28/39 2/27/40 14/31/41 13/32/42
f 2/27/40 3/30/43 15/33/44 14/31/41
s off
f 15/7/45 3/8/46 6/9/47 18/10/48
f 1/13/49 13/14/50 16/15/51 4/16/52
